{
    "asset" : {
        "generator" : "Khronos glTF Blender I/O v1.5.17",
        "version" : "2.0"
    },
    "scene" : 0,
    "scenes" : [
        {
            "name" : "Scene",
            "nodes" : [
                0
            ]
        }
    ],
    "nodes" : [
        {
            "mesh" : 0,
            "name" : "Cube.001",
            "scale" : [
                0.9780674576759338,
                0.9780674576759338,
                0.9780674576759338
            ],
            "translation" : [
                -23.4060115814209,
                2.0147337913513184,
                -13.141407012939453
            ]
        }
    ],
    "meshes" : [
        {
            "name" : "Cube.003",
            "primitives" : [
                {
                    "attributes" : {
                        "POSITION" : 0,
                        "NORMAL" : 1,
                        "TEXCOORD_0" : 2
                    },
                    "indices" : 3
                }
            ]
        }
    ],
    "accessors" : [
        {
            "bufferView" : 0,
            "componentType" : 5126,
            "count" : 5596,
            "max" : [
                38.81842803955078,
                7.358710289001465,
                28.32261085510254
            ],
            "min" : [
                9.045401573181152,
                -2.1137311458587646,
                -1.448333740234375
            ],
            "type" : "VEC3"
        },
        {
            "bufferView" : 1,
            "componentType" : 5126,
            "count" : 5596,
            "type" : "VEC3"
        },
        {
            "bufferView" : 2,
            "componentType" : 5126,
            "count" : 5596,
            "type" : "VEC2"
        },
        {
            "bufferView" : 3,
            "componentType" : 5123,
            "count" : 14520,
            "type" : "SCALAR"
        }
    ],
    "bufferViews" : [
        {
            "buffer" : 0,
            "byteLength" : 67152,
            "byteOffset" : 0
        },
        {
            "buffer" : 0,
            "byteLength" : 67152,
            "byteOffset" : 67152
        },
        {
            "buffer" : 0,
            "byteLength" : 44768,
            "byteOffset" : 134304
        },
        {
            "buffer" : 0,
            "byteLength" : 29040,
            "byteOffset" : 179072
        }
    ],
    "buffers" : [
        {
            "byteLength" : 208112,
            "uri" : "data:application/octet-stream;base64,"
        }
    ]
}
