<svg height="16" viewBox="0 0 4.2333335 4.2333335" width="16" xmlns="http://www.w3.org/2000/svg"><path d="m.14199.141986h3.967279v3.975634h-3.967279z" fill="#262c3b" stroke="#262c3b" stroke-width=".284956"/><g transform="translate(143.72312 39.464266)"><circle cx="-141.66914" cy="-37.378155" fill="#fff" stroke="#000" stroke-width=".106078"/><ellipse cx="-141.67355" cy="-37.37355" fill="#262c3b" rx="1.162504" ry="1.101038" stroke="#e69092" stroke-width=".10879"/><path d="m-143.63557-37.410862h4.067858v.045865h-4.067858z" stroke="#e69092" stroke-width=".158387"/><g fill="#e69092"><path d="m-39.398029 141.64034h4.180691v.045771h-4.180691z" stroke="#e69092" stroke-width=".160404" transform="rotate(90)"/><path d="m7.2254552 14.11547v-1.886928l-.3200129-.054608c-1.3114034-.223781-2.5151504-1.055734-3.1836217-2.2003145-.2369985-.4057978-.3931712-.8552589-.5239465-1.5079058l-.0142318-.0710264h-1.5777621-1.57776187v-.3630235-.3630236h1.57836337 1.5783633v-.1292023c0-.2001769.1166262-.7251263.2341524-1.0539505.4955745-1.3865569 1.753991-2.4693716 3.2693704-2.8131565.1825453-.0414128.3780673-.0754249.4344937-.0755821l.1025937-.000286v-1.7835506-1.78355057h.3788072.3788072v1.76341277 1.763413l.2446463.021953c1.2276399.1101603 2.4666181.7858826 3.2083141 1.7497717.468251.6085276.803968 1.4313767.861627 2.1118656l.01939.2288627h1.82627 1.826269v.3630236.3630235h-1.8303-1.8303l-.01423.071026c-.130418.6508623-.286964 1.1021356-.52184 1.5042982-.725636 1.2424613-2.0014414 2.0689003-3.4682843 2.2466783l-.3215621.03897v1.873368 1.873368h-.3788072-.3788072zm1.2674456-2.309933c1.4380427-.247054 2.5996262-1.140559 3.1515032-2.4241756.124195-.2888661.253007-.7460501.253007-.8979824v-.0886917h-1.9571709-1.9571705v1.7361997 1.7362h.075781c.04168 0 .237002-.0277.4340502-.06155zm-1.2674456-1.690434v-1.7204157h-1.8151179-1.8151178v.088692c0 .04878.029747.2063262.066105.3501022.3688212 1.4584895 1.6033911 2.6095155 3.1537562 2.9403405.147577.03149.3002836.05826.3393481.05948l.071026.0022zm0-4.2931479v-1.8466851h-.076854c-.1225789 0-.516956.088905-.7912456.1783727-.5666422.184826-1.140102.5232985-1.5754796.9298931-.6520409.6089341-1.1309798 1.5488451-1.2072191 2.3691505l-.0200708.2159539h1.8354345 1.8354346zm4.6925178 1.6307312c-.055135-.5932304-.35977-1.3437475-.759654-1.8715292-.504423-.6657555-1.2415845-1.1789484-2.0703951-1.4413557-.3064156-.0970135-.8116642-.1960987-.9999317-.1960987h-.1049226v1.8624688 1.8624687h1.9774872 1.9774872z" opacity="0" transform="matrix(.26458334 0 0 .26458334 -143.72312 -39.464266)"/><path d="m7.2254552 14.11547v-1.886928l-.3200129-.054608c-1.3114034-.223781-2.5151504-1.055734-3.1836217-2.2003145-.2369985-.4057978-.3931712-.8552589-.5239465-1.5079058l-.0142318-.0710264h-1.5777621-1.57776187v-.3630235-.3630236h1.57836337 1.5783633v-.1292023c0-.2001769.1166262-.7251263.2341524-1.0539505.4955745-1.3865569 1.753991-2.4693716 3.2693704-2.8131565.1825453-.0414128.3780673-.0754249.4344937-.0755821l.1025937-.000286v-1.7835506-1.78355057h.3788072.3788072v1.76341277 1.763413l.2446463.021953c1.2276399.1101603 2.4666181.7858826 3.2083141 1.7497717.468251.6085276.803968 1.4313767.861627 2.1118656l.01939.2288627h1.82627 1.826269v.3630236.3630235h-1.8303-1.8303l-.01423.071026c-.130418.6508623-.286964 1.1021356-.52184 1.5042982-.725636 1.2424613-2.0014414 2.0689003-3.4682843 2.2466783l-.3215621.03897v1.873368 1.873368h-.3788072-.3788072zm1.2674456-2.309933c1.4380427-.247054 2.5996262-1.140559 3.1515032-2.4241756.124195-.2888661.253007-.7460501.253007-.8979824v-.0886917h-1.9571709-1.9571705v1.7361997 1.7362h.075781c.04168 0 .237002-.0277.4340502-.06155zm-1.2674456-1.690434v-1.7204157h-1.8151179-1.8151178v.088692c0 .04878.029747.2063262.066105.3501022.3688212 1.4584895 1.6033911 2.6095155 3.1537562 2.9403405.147577.03149.3002836.05826.3393481.05948l.071026.0022zm0-4.2931479v-1.8466851h-.076854c-.1225789 0-.516956.088905-.7912456.1783727-.5666422.184826-1.140102.5232985-1.5754796.9298931-.6520409.6089341-1.1309798 1.5488451-1.2072191 2.3691505l-.0200708.2159539h1.8354345 1.8354346zm4.6925178 1.6307312c-.055135-.5932304-.35977-1.3437475-.759654-1.8715292-.504423-.6657555-1.2415845-1.1789484-2.0703951-1.4413557-.3064156-.0970135-.8116642-.1960987-.9999317-.1960987h-.1049226v1.8624688 1.8624687h1.9774872 1.9774872z" opacity="0" transform="matrix(.26458334 0 0 .26458334 -143.72312 -39.464266)"/><g stroke="#e69092"><path d="m8.0146368 12.066915v-.185179l.4182663-.06824c.4785679-.078077.8009887-.176688 1.210167-.370122.9092239-.429825 1.6100329-1.151882 2.0013339-2.0620126.124195-.2888661.253007-.7460501.253007-.8979824v-.0886917h-1.9413873-1.9413869v-.3630235-.3630236h1.9617036 1.9617036l-.020071-.2159539c-.055135-.5932304-.35977-1.3437476-.759654-1.8715293-.504423-.6657554-1.2415845-1.1789484-2.0703951-1.4413556-.2955394-.0935699-.8100943-.1960987-.9841479-.1960987-.088112 0-.089139-.00223-.089139-.1934824v-.1934824l.2288627.022012c1.227667.118078 2.4547843.7904058 3.1925303 1.7491617.468251.6085277.803968 1.4313768.861627 2.1118657l.01939.2288627h1.82627 1.826269v.3630236.3630235h-1.8303-1.8303l-.01423.071026c-.130418.6508627-.286964 1.102136-.52184 1.5042986-.738246 1.2640533-2.0496874 2.0966113-3.5609838 2.2606643l-.1972954.02142z" opacity="0" stroke-width=".033998" transform="matrix(.26458334 0 0 .26458334 -143.72312 -39.464266)"/><g fill-opacity=".995984" stroke-width=".284956"><path d="m-143.73982-39.464268h4.26796v4.217847h-4.26796z" opacity="0"/><path d="m-143.73982-39.464268h4.26796v4.217846h-4.26796z" opacity="0"/></g></g></g></g></svg>