# Blender v2.92.0 OBJ File: 'altar.blend'
# www.blender.org
mtllib altar.mtl
o Cube
v -0.788611 0.000000 -1.000000
v -0.788611 0.000000 1.000000
v -0.788611 1.000000 -1.000000
v -0.788611 1.000000 1.000000
v 0.732922 0.000000 1.000000
v 0.732922 1.000000 -1.000000
v 0.732922 0.000000 -1.000000
v 0.732922 1.000000 1.000000
v -0.788611 0.500000 1.000000
v -0.788611 0.500000 -1.000000
v 0.732922 0.500000 1.000000
v 0.732922 0.500000 -1.000000
v -0.788611 1.500000 -1.000000
v -0.788611 1.500000 1.000000
v 0.732922 1.500000 1.000000
v 0.732922 1.500000 -1.000000
v 2.070600 1.888235 -0.904869
v 1.975469 1.888235 -1.000000
v 1.958835 2.000000 -0.888235
v 2.056485 1.888235 -0.951562
v 2.054019 1.943088 -0.899553
v 2.043759 1.941363 -0.947106
v 1.970153 1.943088 -0.983419
v 2.022161 1.888235 -0.985885
v 2.017706 1.941363 -0.973159
v 2.013688 1.983419 -0.893551
v 1.964151 1.983419 -0.943088
v 2.014951 1.971002 -0.944351
v 1.993378 0.000000 -1.000000
v 2.070600 0.000000 -0.922778
v 2.031989 0.000000 -0.989654
v 2.060254 0.000000 -0.961389
v 2.070600 1.888235 0.904869
v 1.958835 2.000000 0.888235
v 1.975469 1.888235 1.000000
v 2.054019 1.943088 0.899553
v 2.056485 1.888235 0.951562
v 2.043759 1.941363 0.947106
v 1.964151 1.983419 0.943088
v 2.013688 1.983419 0.893551
v 2.014951 1.971002 0.944351
v 2.022161 1.888235 0.985885
v 1.970153 1.943088 0.983419
v 2.017706 1.941363 0.973159
v 2.070600 0.000000 0.922778
v 1.993378 0.000000 1.000000
v 2.060254 0.000000 0.961389
v 2.031989 0.000000 0.989654
v -2.070600 1.888235 -0.904869
v -1.958835 2.000000 -0.888235
v -1.975469 1.888235 -1.000000
v -2.054019 1.943088 -0.899553
v -2.056485 1.888235 -0.951562
v -2.043759 1.941363 -0.947106
v -1.964151 1.983419 -0.943088
v -2.013688 1.983419 -0.893551
v -2.014951 1.971002 -0.944351
v -2.022161 1.888235 -0.985885
v -1.970153 1.943088 -0.983419
v -2.017706 1.941363 -0.973159
v -2.070600 0.000000 -0.922778
v -1.993378 0.000000 -1.000000
v -2.060254 0.000000 -0.961389
v -2.031989 0.000000 -0.989654
v -2.070600 1.888235 0.904869
v -1.975469 1.888235 1.000000
v -1.958835 2.000000 0.888235
v -2.056485 1.888235 0.951562
v -2.054019 1.943088 0.899553
v -2.043759 1.941363 0.947106
v -1.970153 1.943088 0.983419
v -2.022161 1.888235 0.985885
v -2.017706 1.941363 0.973159
v -2.013688 1.983419 0.893551
v -1.964151 1.983419 0.943088
v -2.014951 1.971003 0.944350
v -1.993378 0.000000 1.000000
v -2.070600 0.000000 0.922778
v -2.031989 0.000000 0.989654
v -2.060254 0.000000 0.961389
v 2.070600 1.000000 -0.913824
v 1.984423 1.000000 -1.000000
v 2.059054 1.000000 -0.956912
v 2.027512 1.000000 -0.988455
v -1.984423 1.000000 1.000000
v -2.070600 1.000000 0.913824
v -2.027512 1.000000 0.988455
v -2.059054 1.000000 0.956912
v 1.984423 1.000000 1.000000
v 2.070600 1.000000 0.913824
v 2.027512 1.000000 0.988455
v 2.059054 1.000000 0.956912
v -1.984423 1.000000 -1.000000
v -2.070600 1.000000 -0.913824
v -2.027512 1.000000 -0.988455
v -2.059054 1.000000 -0.956912
v -0.788611 1.888235 1.000000
v -0.788611 2.000000 0.888235
v -0.788611 1.944118 0.985026
v -0.788611 1.985026 0.944118
v -0.788611 2.000000 -0.888235
v -0.788611 1.888235 -1.000000
v -0.788611 1.985026 -0.944118
v -0.788611 1.944118 -0.985026
v 0.732922 1.888235 -1.000000
v 0.732922 2.000000 -0.888235
v 0.732922 1.944118 -0.985026
v 0.732922 1.985026 -0.944118
v 0.732922 1.888235 1.000000
v 0.732922 2.000000 0.888235
v 0.732922 1.944118 0.985026
v 0.732922 1.985026 0.944118
v 1.991183 0.500000 -1.000000
v 2.070600 0.500000 -0.920583
v 2.030891 0.500000 -0.989360
v 2.059960 0.500000 -0.960292
v 2.070600 0.500000 0.920583
v 1.991183 0.500000 1.000000
v 2.059960 0.500000 0.960292
v 2.030891 0.500000 0.989360
v -2.070600 0.500000 -0.920583
v -1.991183 0.500000 -1.000000
v -2.059960 0.500000 -0.960292
v -2.030891 0.500000 -0.989360
v -2.070600 0.500000 0.920583
v -1.991183 0.500000 1.000000
v -2.059960 0.500000 0.960292
v -2.030891 0.500000 0.989360
v -2.070600 1.500000 0.907064
v -1.977664 1.500000 1.000000
v -2.058149 1.500000 0.953532
v -2.024132 1.500000 0.987549
v 1.977664 1.500000 -1.000000
v 2.070600 1.500000 -0.907064
v 2.024132 1.500000 -0.987549
v 2.058149 1.500000 -0.953532
v 2.070600 1.500000 0.907064
v 1.977664 1.500000 1.000000
v 2.058149 1.500000 0.953532
v 2.024132 1.500000 0.987549
v -2.070600 1.500000 -0.907064
v -1.977664 1.500000 -1.000000
v -2.058149 1.500000 -0.953532
v -2.024132 1.500000 -0.987549
vt 0.313455 0.500213
vt 0.265666 0.499943
vt 0.265666 0.353852
vt 0.313455 0.353852
vt 0.248091 0.159710
vt 0.186545 0.159710
vt 0.186545 0.011685
vt 0.248091 0.011415
vt 0.984333 0.353852
vt 0.984333 0.497895
vt 0.765667 0.497895
vt 0.765667 0.353852
vt 0.063455 0.500213
vt 0.015666 0.499943
vt 0.015666 0.346997
vt 0.063455 0.346997
vt 0.498091 0.166565
vt 0.436545 0.166565
vt 0.436545 0.011685
vt 0.498091 0.011415
vt 0.236651 0.700107
vt 0.236381 0.747895
vt 0.013619 0.747895
vt 0.013349 0.700107
vt 0.125000 0.159710
vt 0.125000 0.012517
vt 0.375000 0.166565
vt 0.375000 0.012517
vt 0.063455 0.159710
vt 0.063455 0.013349
vt 0.488315 0.577016
vt 0.487483 0.638562
vt 0.262517 0.638562
vt 0.261685 0.577016
vt 0.186545 0.346997
vt 0.125000 0.346997
vt 0.984333 0.166565
vt 0.765667 0.166565
vt 0.488585 0.515471
vt 0.261415 0.515471
vt 0.498091 0.502147
vt 0.436545 0.501877
vt 0.436545 0.353852
vt 0.498091 0.353852
vt 0.265666 0.166565
vt 0.313455 0.166565
vt 0.015666 0.159710
vt 0.265666 0.013619
vt 0.313455 0.013349
vt 0.248091 0.502147
vt 0.186545 0.501877
vt 0.248091 0.346997
vt 0.375000 0.501045
vt 0.375000 0.353852
vt 0.748091 0.159710
vt 0.748091 0.346997
vt 0.501909 0.346997
vt 0.501909 0.159710
vt 0.486651 0.700107
vt 0.486381 0.747895
vt 0.263619 0.747895
vt 0.263349 0.700107
vt 0.015666 0.013619
vt 0.237483 0.638562
vt 0.012517 0.638562
vt 0.738585 0.001909
vt 0.743338 0.003183
vt 0.746817 0.006662
vt 0.748091 0.011415
vt 0.501909 0.011415
vt 0.503183 0.006662
vt 0.506662 0.003183
vt 0.511415 0.001909
vt 0.748091 0.502147
vt 0.746817 0.506900
vt 0.743338 0.510379
vt 0.738585 0.511652
vt 0.511415 0.511652
vt 0.506662 0.510379
vt 0.503183 0.506900
vt 0.501909 0.502147
vt 0.238585 0.515471
vt 0.238315 0.577016
vt 0.011685 0.577016
vt 0.011415 0.515471
vt 0.125000 0.501045
vt 0.242128 0.747895
vt 0.241580 0.754435
vt 0.235727 0.754647
vt 0.248091 0.747895
vt 0.248091 0.754435
vt 0.258915 0.014273
vt 0.259127 0.008420
vt 0.265666 0.007872
vt 0.996050 0.014273
vt 0.998091 0.015012
vt 0.998091 0.008759
vt 0.994787 0.008420
vt 0.984334 0.015666
vt 0.984988 0.008915
vt 0.991241 0.008759
vt 0.991085 0.015012
vt 0.985727 0.001909
vt 0.991580 0.001909
vt 0.991580 0.005213
vt 0.998091 0.008420
vt 0.991241 0.001909
vt 0.014273 0.754647
vt 0.008420 0.754435
vt 0.007872 0.747895
vt 0.764273 0.003950
vt 0.765012 0.001909
vt 0.758759 0.001909
vt 0.758420 0.005213
vt 0.765667 0.015666
vt 0.758915 0.015012
vt 0.758759 0.008759
vt 0.765012 0.008915
vt 0.751909 0.014273
vt 0.751909 0.008420
vt 0.015666 0.505690
vt 0.009127 0.505142
vt 0.008915 0.499288
vt 0.015666 0.511652
vt 0.009127 0.511652
vt 0.264273 0.754647
vt 0.258420 0.754435
vt 0.257872 0.747895
vt 0.985727 0.509611
vt 0.984988 0.511652
vt 0.991241 0.511652
vt 0.991580 0.508349
vt 0.991085 0.498549
vt 0.991241 0.504803
vt 0.984988 0.504647
vt 0.998091 0.499288
vt 0.998091 0.505142
vt 0.265666 0.505690
vt 0.259127 0.505142
vt 0.258915 0.499288
vt 0.253647 0.747895
vt 0.251909 0.747895
vt 0.251909 0.754435
vt 0.255213 0.754435
vt 0.492128 0.747895
vt 0.491580 0.754435
vt 0.485727 0.754647
vt 0.015666 0.003647
vt 0.015666 0.001909
vt 0.009127 0.001909
vt 0.009127 0.005213
vt 0.008915 0.014273
vt 0.009127 0.008420
vt 0.015666 0.007872
vt 0.753950 0.499288
vt 0.751909 0.498550
vt 0.751909 0.504802
vt 0.755213 0.505142
vt 0.765012 0.504647
vt 0.758759 0.504802
vt 0.758915 0.498549
vt 0.764273 0.511652
vt 0.758420 0.511652
vt 0.758420 0.508348
vt 0.751909 0.505142
vt 0.758759 0.511652
vt 0.243338 0.515471
vt 0.243203 0.577016
vt 0.248091 0.515471
vt 0.248091 0.577016
vt 0.436545 0.006797
vt 0.498091 0.006662
vt 0.063455 0.007629
vt 0.015666 0.001909
vt 0.063455 0.001909
vt 0.492371 0.700107
vt 0.248091 0.506900
vt 0.186545 0.506765
vt 0.248091 0.511652
vt 0.186545 0.511652
vt 0.006797 0.577016
vt 0.006662 0.515471
vt 0.498091 0.506900
vt 0.436545 0.506765
vt 0.251909 0.577016
vt 0.251909 0.515471
vt 0.256662 0.515471
vt 0.256797 0.577016
vt 0.758788 0.353852
vt 0.751909 0.499288
vt 0.751909 0.353852
vt 0.008788 0.159710
vt 0.764273 0.001909
vt 0.985727 0.511652
vt 0.991212 0.166565
vt 0.998091 0.014273
vt 0.998091 0.166565
vt 0.258788 0.166565
vt 0.242787 0.638562
vt 0.242371 0.700107
vt 0.248091 0.638562
vt 0.248091 0.700107
vt 0.313455 0.007629
vt 0.375000 0.007213
vt 0.125000 0.007213
vt 0.186545 0.006797
vt 0.125000 0.001909
vt 0.186545 0.001909
vt 0.493203 0.577016
vt 0.492787 0.638562
vt 0.125000 0.506349
vt 0.063455 0.505933
vt 0.125000 0.511652
vt 0.063455 0.511652
vt 0.007629 0.700107
vt 0.007213 0.638562
vt 0.375000 0.506349
vt 0.313455 0.505933
vt 0.251909 0.700107
vt 0.251909 0.638562
vt 0.257213 0.638562
vt 0.257629 0.700107
vt 0.758788 0.166565
vt 0.751909 0.166565
vt 0.008788 0.346997
vt 0.991212 0.353852
vt 0.998091 0.353852
vt 0.258788 0.353852
vt 0.248091 0.006662
vt 0.248091 0.001909
vt 0.493338 0.515471
vt 0.251909 0.747895
vn -0.1342 0.0018 -0.9910
vn -0.1344 0.1386 -0.9812
vn -0.0002 0.1344 -0.9909
vn 0.0000 0.0000 -1.0000
vn 0.0000 0.0000 1.0000
vn -0.1309 0.0012 0.9914
vn -0.1309 0.0006 0.9914
vn -0.0002 0.9909 -0.1344
vn -0.1313 0.9832 -0.1269
vn -0.1313 0.9832 0.1269
vn -0.0002 0.9909 0.1344
vn 0.1342 0.0018 0.9910
vn 0.1343 0.1386 0.9812
vn 0.0002 0.1344 0.9909
vn 0.1309 0.0012 -0.9914
vn 0.1309 0.0006 -0.9914
vn 0.9910 0.0018 -0.1342
vn 0.9807 0.1424 -0.1342
vn 0.9807 0.1424 0.1342
vn 0.9910 0.0018 0.1342
vn -0.1305 0.0018 0.9914
vn 0.1305 0.0018 -0.9914
vn -0.1342 0.0018 0.9910
vn -0.9914 0.0012 0.1309
vn -0.9914 0.0018 0.1305
vn -0.9914 0.0018 -0.1305
vn -0.9914 0.0012 -0.1309
vn 0.0002 0.9909 -0.1344
vn 0.0002 0.9909 0.1344
vn -0.9914 0.0006 0.1309
vn -0.9914 0.0006 -0.1309
vn -0.1309 0.0006 -0.9914
vn -0.1309 0.0012 -0.9914
vn 0.0002 0.1344 -0.9909
vn -0.0002 0.1344 0.9909
vn 0.1343 0.1386 -0.9812
vn 0.1342 0.0018 -0.9910
vn 0.1309 0.0006 0.9914
vn 0.1309 0.0012 0.9914
vn -0.1305 0.0018 -0.9914
vn 0.0000 -1.0000 0.0000
vn -0.9910 0.0018 0.1342
vn -0.9807 0.1424 0.1342
vn -0.9807 0.1424 -0.1342
vn -0.9910 0.0018 -0.1342
vn -0.1344 0.1386 0.9812
vn 0.9914 0.0018 -0.1305
vn 0.9914 0.0018 0.1305
vn 0.9914 0.0006 -0.1309
vn 0.9914 0.0012 -0.1309
vn 0.9914 0.0012 0.1309
vn 0.9914 0.0006 0.1309
vn 0.1305 0.0018 0.9914
vn 0.8587 0.1302 -0.4956
vn 0.7760 0.4618 -0.4297
vn 0.8556 0.5069 -0.1048
vn 0.4956 0.1302 -0.8587
vn 0.4297 0.4618 -0.7760
vn 0.1055 0.5031 -0.8577
vn 0.1075 0.8664 -0.4876
vn 0.4300 0.7938 -0.4300
vn 0.1313 0.9832 -0.1269
vn 0.4910 0.8646 -0.1068
vn 0.8556 0.5069 0.1048
vn 0.7760 0.4618 0.4297
vn 0.8587 0.1302 0.4956
vn 0.4910 0.8646 0.1068
vn 0.4300 0.7938 0.4300
vn 0.1313 0.9832 0.1269
vn 0.1075 0.8664 0.4876
vn 0.1055 0.5031 0.8577
vn 0.4297 0.4618 0.7760
vn 0.4956 0.1302 0.8587
vn -0.8556 0.5069 -0.1048
vn -0.7760 0.4618 -0.4297
vn -0.8587 0.1302 -0.4956
vn -0.4910 0.8646 -0.1068
vn -0.4300 0.7938 -0.4300
vn -0.1075 0.8664 -0.4876
vn -0.1055 0.5031 -0.8577
vn -0.4297 0.4618 -0.7760
vn -0.4956 0.1302 -0.8587
vn -0.8587 0.1302 0.4956
vn -0.7760 0.4618 0.4297
vn -0.8556 0.5069 0.1048
vn -0.4956 0.1302 0.8587
vn -0.4297 0.4618 0.7760
vn -0.1055 0.5031 0.8577
vn -0.1075 0.8664 0.4876
vn -0.4300 0.7938 0.4300
vn -0.4910 0.8646 0.1068
vn 0.8659 0.0016 -0.5002
vn 0.8659 0.0033 -0.5002
vn 0.5002 0.0016 -0.8659
vn 0.5002 0.0033 -0.8659
vn -0.5033 0.0051 0.8641
vn -0.8641 0.0051 0.5033
vn 0.5002 0.0016 0.8659
vn 0.5002 0.0033 0.8659
vn 0.8659 0.0016 0.5002
vn 0.8659 0.0033 0.5002
vn -0.5002 0.0016 -0.8659
vn -0.5002 0.0033 -0.8659
vn -0.8659 0.0016 -0.5002
vn -0.8659 0.0033 -0.5002
vn -0.0006 0.8641 0.5034
vn -0.0006 0.5034 0.8640
vn 0.0006 0.8641 -0.5034
vn 0.0006 0.5034 -0.8640
vn 0.8660 0.0049 -0.5000
vn 0.8641 0.0051 -0.5033
vn 0.7071 0.0061 -0.7071
vn 0.5033 0.0051 -0.8641
vn 0.2588 0.0035 -0.9659
vn -0.2588 0.0035 0.9659
vn -0.5002 0.0033 0.8659
vn -0.7071 0.0061 0.7071
vn -0.8660 0.0049 0.5000
vn -0.8659 0.0033 0.5002
vn 0.2588 0.0035 0.9659
vn 0.5033 0.0051 0.8641
vn 0.7071 0.0061 0.7071
vn 0.8660 0.0049 0.5000
vn 0.8641 0.0051 0.5033
vn -0.2588 0.0035 -0.9659
vn -0.5033 0.0051 -0.8641
vn -0.7071 0.0061 -0.7071
vn -0.8660 0.0049 -0.5000
vn -0.8641 0.0051 -0.5033
vn 0.0006 0.8641 0.5034
vn 0.0006 0.5034 0.8640
vn -0.0006 0.8641 -0.5034
vn -0.0006 0.5034 -0.8640
vn -0.5002 0.0016 0.8659
vn -0.8659 0.0016 0.5002
usemtl Material.002
s 1
f 142/1/1 51/2/2 102/3/3 13/4/4
f 2/5/5 9/6/5 126/7/6 77/8/7
f 101/9/8 50/10/9 67/11/10 98/12/11
f 138/13/12 35/14/13 109/15/14 15/16/5
f 7/17/4 12/18/4 113/19/15 29/20/16
f 134/21/17 17/22/18 33/23/19 137/24/20
f 9/6/5 4/25/5 85/26/21 126/7/6
f 12/18/4 6/27/4 82/28/22 113/19/15
f 4/25/5 14/29/5 130/30/23 85/26/21
f 125/31/24 86/32/25 94/33/26 121/34/27
f 11/35/5 8/36/5 4/25/5 9/6/5
f 106/37/28 101/9/8 98/12/11 110/38/29
f 78/39/30 125/31/24 121/34/27 61/40/31
f 62/41/32 122/42/33 10/43/4 1/44/4
f 13/4/4 102/3/3 105/45/34 16/46/4
f 15/16/5 109/15/14 97/47/35 14/29/5
f 16/46/4 105/45/34 18/48/36 133/49/37
f 46/50/38 118/51/39 11/35/5 5/52/5
f 93/53/40 142/1/1 13/4/4 3/54/4
f 10/43/4 3/54/4 6/27/4 12/18/4
f 1/55/41 7/56/41 5/57/41 2/58/41
f 1/44/4 10/43/4 12/18/4 7/17/4
f 129/59/42 65/60/43 49/61/44 141/62/45
f 14/29/5 97/47/35 66/63/46 130/30/23
f 5/52/5 11/35/5 9/6/5 2/5/5
f 81/64/47 134/21/17 137/24/20 90/65/48
f 61/66/41 63/67/41 64/68/41 62/69/41 1/55/41 2/58/41 77/70/41 79/71/41 80/72/41 78/73/41
f 7/56/41 29/74/41 31/75/41 32/76/41 30/77/41 45/78/41 47/79/41 48/80/41 46/81/41 5/57/41
f 30/82/49 114/83/50 117/84/51 45/85/52
f 3/54/4 13/4/4 16/46/4 6/27/4
f 118/51/39 89/86/53 8/36/5 11/35/5
f 8/36/5 15/16/5 14/29/5 4/25/5
f 122/42/33 93/53/40 3/54/4 10/43/4
f 114/83/50 81/64/47 90/65/48 117/84/51
f 6/27/4 16/46/4 133/49/37 82/28/22
f 89/86/53 138/13/12 15/16/5 8/36/5
f 86/32/25 129/59/42 141/62/45 94/33/26
f 17/22/18 20/87/54 22/88/55 21/89/56
f 20/87/54 24/90/57 25/91/58 22/88/55
f 18/48/36 23/92/59 25/93/58 24/94/57
f 23/95/59 27/96/60 28/97/61 25/98/58
f 19/99/62 26/100/63 28/101/61 27/102/60
f 26/100/63 21/103/56 22/104/55 28/101/61
f 22/105/55 25/106/58 28/107/61
f 33/23/19 36/108/64 38/109/65 37/110/66
f 36/111/64 40/112/67 41/113/68 38/114/65
f 34/115/69 39/116/70 41/117/68 40/118/67
f 39/116/70 43/119/71 44/120/72 41/117/68
f 35/14/13 42/121/73 44/122/72 43/123/71
f 42/121/73 37/124/66 38/125/65 44/122/72
f 38/114/65 41/113/68 44/120/72
f 49/61/44 52/126/74 54/127/75 53/128/76
f 52/129/74 56/130/77 57/131/78 54/132/75
f 50/10/9 55/133/79 57/134/78 56/135/77
f 55/133/79 59/136/80 60/137/81 57/134/78
f 51/2/2 58/138/82 60/139/81 59/140/80
f 58/141/82 53/142/76 54/143/75 60/144/81
f 54/132/75 57/131/78 60/137/81
f 65/60/43 68/145/83 70/146/84 69/147/85
f 68/148/83 72/149/86 73/150/87 70/151/84
f 66/63/46 71/152/88 73/153/87 72/154/86
f 71/155/88 75/156/89 76/157/90 73/158/87
f 67/11/10 74/159/91 76/160/90 75/161/89
f 74/159/91 69/162/85 70/163/84 76/160/90
f 70/164/84 73/165/87 76/166/90
f 114/83/50 30/82/49 32/167/92 116/168/93
f 116/168/93 32/167/92 31/169/94 115/170/95
f 115/171/95 31/172/94 29/20/16 113/19/15
f 130/30/23 66/63/46 72/154/86 132/173/96
f 132/173/96 72/154/86 68/174/83 131/175/97
f 131/176/97 68/145/83 65/60/43 129/59/42
f 118/51/39 46/50/38 48/177/98 120/178/99
f 120/178/99 48/177/98 47/179/100 119/180/101
f 119/181/101 47/182/100 45/85/52 117/84/51
f 122/42/33 62/41/32 64/183/102 124/184/103
f 124/185/103 64/186/102 63/187/104 123/188/105
f 123/188/105 63/187/104 61/40/31 121/34/27
f 98/12/11 67/11/10 75/161/89 100/189/106
f 100/189/106 75/161/89 71/190/88 99/191/107
f 99/192/107 71/152/88 66/63/46 97/47/35
f 19/99/62 34/115/69 40/118/67 26/100/63
f 26/100/63 40/118/67 36/193/64 21/103/56
f 21/89/56 36/108/64 33/23/19 17/22/18
f 67/11/10 50/10/9 56/135/77 74/159/91
f 74/159/91 56/135/77 52/194/74 69/162/85
f 69/147/85 52/126/74 49/61/44 65/60/43
f 106/37/28 19/99/62 27/102/60 108/195/108
f 108/195/108 27/102/60 23/196/59 107/197/109
f 107/198/109 23/92/59 18/48/36 105/45/34
f 134/21/17 81/64/47 83/199/110 136/200/111
f 136/200/111 83/199/110 84/201/112 135/202/113
f 135/203/113 84/204/114 82/28/22 133/49/37
f 126/7/6 85/26/21 87/205/115 128/206/116
f 128/206/116 87/205/117 88/207/118 127/208/119
f 127/209/119 88/210/118 86/32/25 125/31/24
f 138/13/12 89/86/53 91/211/120 140/212/121
f 140/212/121 91/211/122 92/213/123 139/214/124
f 139/215/124 92/216/123 90/65/48 137/24/20
f 142/1/1 93/53/40 95/217/125 144/218/126
f 144/219/126 95/220/127 96/221/128 143/222/129
f 143/222/129 96/221/128 94/33/26 141/62/45
f 110/38/29 98/12/11 100/189/106 112/223/130
f 112/223/130 100/189/106 99/191/107 111/224/131
f 111/225/131 99/192/107 97/47/35 109/15/14
f 50/10/9 101/9/8 103/226/132 55/133/79
f 55/133/79 103/226/132 104/227/133 59/136/80
f 59/140/80 104/228/133 102/3/3 51/2/2
f 101/9/8 106/37/28 108/195/108 103/226/132
f 103/226/132 108/195/108 107/197/109 104/227/133
f 104/228/133 107/198/109 105/45/34 102/3/3
f 34/115/69 110/38/29 112/223/130 39/116/70
f 39/116/70 112/223/130 111/224/131 43/119/71
f 43/123/71 111/225/131 109/15/14 35/14/13
f 81/64/47 114/83/50 116/168/93 83/199/110
f 83/199/110 116/168/93 115/170/95 84/201/112
f 84/204/114 115/171/95 113/19/15 82/28/22
f 89/86/53 118/51/39 120/178/99 91/211/120
f 91/211/122 120/178/99 119/180/101 92/213/123
f 92/216/123 119/181/101 117/84/51 90/65/48
f 93/53/40 122/42/33 124/184/103 95/217/125
f 95/220/127 124/185/103 123/188/105 96/221/128
f 96/221/128 123/188/105 121/34/27 94/33/26
f 77/8/7 126/7/6 128/206/116 79/229/134
f 79/229/134 128/206/116 127/208/119 80/230/135
f 80/231/135 127/209/119 125/31/24 78/39/30
f 85/26/21 130/30/23 132/173/96 87/205/115
f 87/205/117 132/173/96 131/175/97 88/207/118
f 88/210/118 131/176/97 129/59/42 86/32/25
f 17/22/18 134/21/17 136/200/111 20/87/54
f 20/87/54 136/200/111 135/202/113 24/90/57
f 24/94/57 135/203/113 133/49/37 18/48/36
f 35/14/13 138/13/12 140/212/121 42/121/73
f 42/121/73 140/212/121 139/214/124 37/124/66
f 37/110/66 139/215/124 137/24/20 33/23/19
f 51/2/2 142/1/1 144/218/126 58/138/82
f 58/232/82 144/219/126 143/222/129 53/128/76
f 53/128/76 143/222/129 141/62/45 49/61/44
f 19/99/62 106/37/28 110/38/29 34/115/69
